<svg width="50" height="50" xmlns="http://www.w3.org/2000/svg" viewBox="0 0 109.89 219"><defs><style>.cls-1,.cls-2{fill:#8181f2;}.cls-2{font-size:36.49px;font-family:NotoSansKR-Regular-KSCpc-EUC-H, Noto Sans KR;}</style></defs><g id="레이어_2" data-name="레이어 2"><g id="레이어_1-2" data-name="레이어 1"><path class="cls-1" d="M49,2.38,2.92,46.71A9.46,9.46,0,0,0,0,53.55v49a4,4,0,0,0,4,4h30.9a4,4,0,0,0,4-4V87a16,16,0,0,1,16-16h0a16,16,0,0,1,16,16v15.55a4,4,0,0,0,4,4h30.9a4,4,0,0,0,4-4v-49A9.5,9.5,0,0,0,107,46.71L60.85,2.38A8.52,8.52,0,0,0,49,2.38Z"/><text class="cls-2" transform="translate(38.15 180.76)">홈</text></g></g></svg>