<svg width="50" height="50" xmlns="http://www.w3.org/2000/svg" viewBox="0 0 138.67 219.54"><defs><style>.cls-1,.cls-2{fill:#8181f2;}.cls-2{font-size:36.49px;font-family:NotoSansKR-Regular-KSCpc-EUC-H, Noto Sans KR;}</style></defs><g id="레이어_2" data-name="레이어 2"><g id="레이어_1-2" data-name="레이어 1"><path class="cls-1" d="M64.09,17.79H27A3.59,3.59,0,0,0,27,25H64.09a3.59,3.59,0,1,0,0-7.18Z"/><path class="cls-1" d="M67.11,81.6h42.53a3.63,3.63,0,1,0,0-7.19H67.11a3.63,3.63,0,1,0,0,7.19Z"/><path class="cls-1" d="M138.51,102.46l-6.17-19.7v-26A20.38,20.38,0,0,0,112,36.41H85.52V18.2A18.23,18.23,0,0,0,67.32,0H25A18.23,18.23,0,0,0,6.78,18.2V40.78L1.42,57.88a3.6,3.6,0,0,0,.91,3.63A3.53,3.53,0,0,0,6,62.38l17.4-5.6H43.08V80.13A20.39,20.39,0,0,0,63.43,100.5h50.51L134,107a3.63,3.63,0,0,0,3.63-.86A3.6,3.6,0,0,0,138.51,102.46Zm-60.18-66H63.43a20.18,20.18,0,0,0-19,13.26,2.47,2.47,0,0,0-.63-.08h-21a3.46,3.46,0,0,0-1.09.18L10.36,53.42l3.45-11A3.86,3.86,0,0,0,14,41.33V18.2a11,11,0,0,1,11-11H67.32a11,11,0,0,1,11,11ZM50.27,56.77A13.18,13.18,0,0,1,63.43,43.59H112a13.18,13.18,0,0,1,13.16,13.18V83.31a4.28,4.28,0,0,0,.16,1.08L129.58,98l-14-4.49a3.5,3.5,0,0,0-1.12-.18H63.43A13.18,13.18,0,0,1,50.27,80.13Z"/><path class="cls-1" d="M45.53,31.79H27A3.59,3.59,0,0,0,27,39H45.53a3.59,3.59,0,0,0,0-7.18Z"/><path class="cls-1" d="M67.11,63.48h42.53a3.63,3.63,0,1,0,0-7.19H67.11a3.63,3.63,0,1,0,0,7.19Z"/><text class="cls-2" transform="translate(0 181.29)">고객센터</text></g></g></svg>