<svg width="50" height="50" xmlns="http://www.w3.org/2000/svg" viewBox="0 0 134.3 222.71"><defs><style>.cls-1,.cls-2{fill:#8181f2;}.cls-2{font-size:36.49px;font-family:NotoSansKR-Regular-KSCpc-EUC-H, Noto Sans KR;}</style></defs><g id="레이어_2" data-name="레이어 2"><g id="레이어_1-2" data-name="레이어 1"><path class="cls-1" d="M32,17.82,28.11,2.43A3.22,3.22,0,0,0,25,0H5.15A3.22,3.22,0,0,0,1.93,3.21v4.9a3.22,3.22,0,0,0,3.22,3.22h11a3.21,3.21,0,0,1,3.12,2.42l1.64,6.5h0L34.85,75.36A3.21,3.21,0,0,0,38,77.78H96.74a3.21,3.21,0,0,0,3.12-2.42l12.91-51.11a3.21,3.21,0,0,0-3.11-4H35.11A3.21,3.21,0,0,1,32,17.82ZM87.92,66.46H46.78A3.21,3.21,0,0,1,43.67,64L36.48,35.57a3.21,3.21,0,0,1,3.12-4H95.11a3.21,3.21,0,0,1,3.12,4L91,64A3.21,3.21,0,0,1,87.92,66.46Z"/><path class="cls-1" d="M51,98.71a11.59,11.59,0,1,0-11.59,11.58A11.58,11.58,0,0,0,51,98.71Z"/><path class="cls-1" d="M106.51,98.71a11.59,11.59,0,1,0-11.58,11.58A11.58,11.58,0,0,0,106.51,98.71Z"/><text class="cls-2" transform="translate(0 184.46)">필터구입</text></g></g></svg>