<svg width="50" height="50" xmlns="http://www.w3.org/2000/svg" viewBox="0 0 103.94 215.91"><defs><style>.cls-1,.cls-2{fill:#8181f2;}.cls-2{font-size:36.49px;font-family:NotoSansKR-Regular-KSCpc-EUC-H, Noto Sans KR;}</style></defs><g id="레이어_2" data-name="레이어 2"><g id="레이어_1-2" data-name="레이어 1"><circle class="cls-1" cx="51.97" cy="28.92" r="8.32"/><path class="cls-1" d="M51.93,43.79a8.28,8.28,0,0,0-8.28,8.27V75.65a8.28,8.28,0,0,0,8.28,8.28H52a8.28,8.28,0,0,0,8.27-8.28V52.06A8.3,8.3,0,0,0,51.93,43.79Z"/><path class="cls-1" d="M52,0a52,52,0,1,0,52,52A52,52,0,0,0,52,0Zm0,94A42,42,0,1,1,94,52,42.08,42.08,0,0,1,52,94Z"/><text class="cls-2" transform="translate(18.82 177.67)">제품</text></g></g></svg>